# xmcd
#
# Track frame offsets:
#	150
#	12190
#	31874
#	45722
#	63898
#	79362
#	92887
#	105642
#	117368
#	128699
#
# Disc length: 1965 seconds
#
# Revision: 1
# Processed by: cddbd v1.5.2PL0 Copyright (c) Steve Scherf et al.
# Submitted via: audiograbber 1.83.01
#
DISCID=7907ab0a
DTITLE=Various Artist - 100 Greatest Country Duets #1
DYEAR=2008
DGENRE=Country
TTITLE0=Lynn, Loretta and Twitty, Conway - #10 After The Fire Is Gone
TTITLE1=McEntire, Reba and Davis, Linda - #9 Does He Love You
TTITLE2=West, Dottie and Rogers, Kennny - #8 Every Time Two Fools Collide
TTITLE3=Rabbit, Eddie and Gayle, Crystal - #7 You and I
TTITLE4=Frizzwl, David and West, Shelly - #6 You're The Reason God Made Oklahoma
TTITLE5=Wynette, Tammy and Jones, George - #5 We're Gonna Hold On
TTITLE6=Cash, Johnny and Cash, June Carter - #4 Jackson
TTITLE7=Nelson, Willie and Jennings, Waylon - #3 Mammas Don't Let Your Babies Gro
TTITLE7=w Up To Be Cowboys
TTITLE8=Lynn, Loretta and Twitty, Conway - #2 Louisiana Woman, Mississippi Man
TTITLE9=Rogers, Kenny and Parton, Dolly - #1 Islands In The Stream
EXTD=
EXTT0=
EXTT1=
EXTT2=
EXTT3=
EXTT4=
EXTT5=
EXTT6=
EXTT7=
EXTT8=
EXTT9=
PLAYORDER=
